<svg width="197" height="133" viewBox="0 0 197 133" fill="none" xmlns="http://www.w3.org/2000/svg">
<g clip-path="url(#clip0_2_2)">
<rect width="197" height="133" fill="white"/>
<g clip-path="url(#clip1_2_2)">
<path d="M283.464 196.891C283.464 226.494 259.48 250.465 229.889 250.465H53.57C23.983 250.465 0 226.493 0 196.891V20.574C0 -9.006 23.983 -33 53.57 -33H229.889C259.48 -33 283.464 -9.006 283.464 20.574V196.891Z" fill="#0182AC"/>
<path d="M73.282 208.777C49.946 208.777 30.965 190.069 30.965 167.081C30.965 144.089 49.946 125.392 73.282 125.392C96.619 125.392 115.605 144.089 115.605 167.081C115.605 190.069 96.619 208.777 73.282 208.777ZM73.282 131.244C53.166 131.244 36.812 147.32 36.812 167.081C36.812 186.848 53.166 202.927 73.282 202.927C93.399 202.927 109.777 186.848 109.777 167.081C109.777 147.32 93.399 131.244 73.282 131.244Z" fill="white"/>
<path d="M213.73 208.777C190.394 208.777 171.396 190.069 171.396 167.081C171.396 144.089 190.394 125.392 213.73 125.392C237.045 125.392 255.995 144.089 255.995 167.081C255.995 190.069 237.045 208.777 213.73 208.777ZM213.73 131.244C193.601 131.244 177.236 147.32 177.236 167.081C177.236 186.848 193.601 202.927 213.73 202.927C233.811 202.927 250.155 186.848 250.155 167.081C250.155 147.32 233.811 131.244 213.73 131.244Z" fill="white"/>
<path d="M75.348 168.604L69.728 166.595L97.15 94.022L102.771 96.042L75.348 168.604Z" fill="white"/>
<path d="M212.069 168.361L173.105 122.161L175.136 116.897L216.593 164.528L212.069 168.361Z" fill="white"/>
<path d="M174.697 122.114L96.758 111.889V105.575L174.697 115.801V122.114Z" fill="white"/>
<path d="M161.864 170.969L157.479 169.354L179.706 92.072L184.091 93.699L161.864 170.969Z" fill="white"/>
<path d="M157.409 173.069L88.425 120.855L94.796 108.911L163.803 161.113L157.409 173.069Z" fill="white"/>
<path d="M88.575 97.058L88.506 91.218L102.517 91.08L102.333 96.827L88.575 97.058Z" fill="white"/>
<path d="M193.395 97.773L167.635 94.115L168.72 90.779L192.285 89.787L193.395 97.773Z" fill="white"/>
<path d="M80.877 100.428L90.836 83.139L93.838 83.474L86.775 101.64L80.877 100.428Z" fill="white"/>
<path d="M103.521 93.515C102.505 97.912 99.458 106.003 98.731 105.829C98.073 105.668 101.051 94.842 101.051 93.515C101.051 92.199 101.847 91.079 102.516 91.079C103.199 91.08 103.81 92.234 103.521 93.515Z" fill="white"/>
<path d="M105.045 128.302C104.998 127.826 103.567 116.644 105.114 104.237C106.038 96.874 107.826 90.607 110.458 85.645C113.84 79.239 118.583 74.957 124.562 72.915C134.857 69.417 145.797 71.172 157.363 73.019C165.926 74.393 174.767 75.8 184.647 75.546C207.037 74.958 220.402 68.448 225.456 55.649C227.118 51.437 226.771 46.405 224.511 41.454C222.156 36.341 217.98 31.932 212.761 29.035C208.769 26.843 200.805 25.377 190.902 25.019C181.485 24.684 171.329 25.423 163.735 26.969L162.972 23.207C170.844 21.603 181.347 20.853 191.04 21.198C197.205 21.406 208.446 22.283 214.61 25.688C220.542 28.966 225.296 33.998 227.997 39.861C230.698 45.757 231.065 51.863 229.012 57.057C223.333 71.437 208.839 78.743 184.74 79.378C174.515 79.644 165.074 78.131 156.763 76.804C145.199 74.945 135.204 73.342 125.808 76.55C103.407 84.179 108.796 127.368 108.855 127.804L105.045 128.302Z" fill="white"/>
<path d="M127.654 10.384H163.802C164.817 10.384 165.648 11.203 165.648 12.218V39.19C165.648 40.195 164.817 41.025 163.802 41.025H127.654" fill="white"/>
<path d="M163.803 42.941H127.655V39.109H163.734V12.299H127.655V8.46701H163.803C165.857 8.46701 167.565 10.152 167.565 12.217V39.19C167.565 41.256 165.856 42.941 163.803 42.941Z" fill="white"/>
<path d="M129.478 15.3C129.478 16.027 128.739 16.592 127.793 16.592H109.234C108.299 16.592 107.538 16.027 107.538 15.3V14.434C107.538 13.718 108.299 13.13 109.234 13.13H127.793C128.738 13.13 129.478 13.718 129.478 14.434V15.3Z" fill="white"/>
<path d="M129.478 36.848C129.478 37.575 128.739 38.152 127.793 38.152H109.234C108.299 38.152 107.538 37.575 107.538 36.848V35.982C107.538 35.266 108.299 34.677 109.234 34.677H127.793C128.738 34.677 129.478 35.266 129.478 35.982V36.848Z" fill="white"/>
</g>
</g>
<defs>
<clipPath id="clip0_2_2">
<rect width="197" height="133" fill="white"/>
</clipPath>
<clipPath id="clip1_2_2">
<rect width="283.464" height="283.465" fill="white" transform="translate(0 -33)"/>
</clipPath>
</defs>
</svg>
